<svg xmlns="http://www.w3.org/2000/svg" width="128" height="128" viewBox="0 0 64 64" role="img" aria-labelledby="title desc">
  <title id="title">Sartal Stock</title>
  <desc id="desc">Marque Sartal Stock avec cube de stock et flux multi-dépôts</desc>
  <defs>
    <linearGradient id="bg" x1="8" y1="6" x2="58" y2="62" gradientUnits="userSpaceOnUse">
      <stop stop-color="#2563EB"/>
      <stop offset="0.55" stop-color="#0F766E"/>
      <stop offset="1" stop-color="#0F172A"/>
    </linearGradient>
    <linearGradient id="accent" x1="18" y1="14" x2="48" y2="50" gradientUnits="userSpaceOnUse">
      <stop stop-color="#D1FAE5"/>
      <stop offset="1" stop-color="#38BDF8"/>
    </linearGradient>
  </defs>
  <rect x="4" y="4" width="56" height="56" rx="14" fill="url(#bg)"/>
  <path d="M32 13.5 47 22.1 32 30.7 17 22.1 32 13.5Z" fill="#FFFFFF" fill-opacity="0.12" stroke="#E0F2FE" stroke-width="2.5" stroke-linejoin="round"/>
  <path d="M17 22.2v17.2L32 48l15-8.6V22.2M32 30.7V48" fill="none" stroke="#E0F2FE" stroke-width="2.5" stroke-linecap="round" stroke-linejoin="round"/>
  <path d="M39.2 22.4c-1.8-2.3-5.2-3.5-8.8-2.8-4.4.8-7.1 3.7-6.3 6.8.7 2.6 3.7 3.3 7.7 3.8 4.9.6 7.8 1.7 8.4 4.8.7 3.8-2.7 7.1-8.1 7.7-4.3.5-8.1-1-10-3.8" fill="none" stroke="#FFFFFF" stroke-width="4.1" stroke-linecap="round"/>
  <circle cx="18.5" cy="43.5" r="3.2" fill="url(#accent)"/>
  <circle cx="45.5" cy="43.5" r="3.2" fill="url(#accent)"/>
  <circle cx="32" cy="52" r="2.6" fill="#BBF7D0"/>
</svg>
