<svg xmlns="http://www.w3.org/2000/svg" width="720" height="180" viewBox="0 0 720 180" role="img" aria-labelledby="title desc">
  <title id="title">Sartal Stock</title>
  <desc id="desc">Logo horizontal Sartal Stock pour pilotage stock multi-sites</desc>
  <defs>
    <linearGradient id="markBg" x1="18" y1="14" x2="142" y2="154" gradientUnits="userSpaceOnUse">
      <stop stop-color="#2563EB"/>
      <stop offset="0.55" stop-color="#0F766E"/>
      <stop offset="1" stop-color="#0F172A"/>
    </linearGradient>
    <linearGradient id="markAccent" x1="42" y1="38" x2="118" y2="132" gradientUnits="userSpaceOnUse">
      <stop stop-color="#D1FAE5"/>
      <stop offset="1" stop-color="#38BDF8"/>
    </linearGradient>
  </defs>
  <rect x="18" y="18" width="144" height="144" rx="34" fill="url(#markBg)"/>
  <path d="M90 42 127 63.2 90 84.3 53 63.2 90 42Z" fill="#FFFFFF" fill-opacity="0.12" stroke="#E0F2FE" stroke-width="6" stroke-linejoin="round"/>
  <path d="M53 63.5v42.2L90 127l37-21.3V63.5M90 84.3V127" fill="none" stroke="#E0F2FE" stroke-width="6" stroke-linecap="round" stroke-linejoin="round"/>
  <path d="M108 64c-4.4-5.7-12.7-8.7-21.8-7-10.9 2-17.4 9.2-15.4 16.8 1.8 6.4 9.2 8.1 19 9.4 12.2 1.5 19.4 4.2 20.9 11.9 1.8 9.3-6.7 17.5-20.1 19-10.6 1.2-20-2.4-24.7-9.3" fill="none" stroke="#FFFFFF" stroke-width="10" stroke-linecap="round"/>
  <circle cx="56.5" cy="116.5" r="7.8" fill="url(#markAccent)"/>
  <circle cx="123.5" cy="116.5" r="7.8" fill="url(#markAccent)"/>
  <circle cx="90" cy="137" r="6.4" fill="#BBF7D0"/>
  <text x="194" y="80" fill="#0F172A" font-family="Plus Jakarta Sans, Inter, Arial, sans-serif" font-size="45" font-weight="800" letter-spacing="1.4">SÁRTAL</text>
  <text x="194" y="126" fill="#2563EB" font-family="Plus Jakarta Sans, Inter, Arial, sans-serif" font-size="43" font-weight="800" letter-spacing="1.1">STOCK</text>
  <path d="M470 102h116" stroke="#CBD5E1" stroke-width="2" stroke-linecap="round"/>
  <text x="194" y="152" fill="#64748B" font-family="Plus Jakarta Sans, Inter, Arial, sans-serif" font-size="18" font-weight="600">Pilotage stock multi-sites, multi-dépôts et multi-POS</text>
</svg>
